<svg width="899" height="640" viewBox="0 0 899 640" fill="none" xmlns="http://www.w3.org/2000/svg">
<g clip-path="url(#clip0_240_389)">
<path d="M-27.1231 22.2879C-23.2996 9.08414 -11.2084 -0.00244141 2.53784 -0.00244141H860.91C881.472 -0.00244141 896.291 19.7161 890.571 39.4664L723.124 617.707C719.301 630.911 707.21 639.997 693.463 639.997H-164.909C-185.471 639.997 -200.289 620.279 -194.57 600.529L-27.1231 22.2879Z" fill="#FFCE4E"/>
<g opacity="0.3">
<path d="M626.613 311.134L620.149 325.501L609.785 319.754L604.963 331.351L593.368 326.322V336.277L575.514 331.145L572.128 338.329L565.663 354.646L555.505 349.926L550.682 361.214L550.888 361.42L544.936 370.348L572.949 368.398L577.156 359.367H634.103L673.505 353.004L705.314 324.167L703.262 321.191L694.848 318.625L684.792 304.874L687.563 296.048H679.559L668.477 293.482L656.062 296.356L651.444 289.275L642.312 286.401L647.75 297.793H630.615L626.613 311.134Z" fill="white"/>
<path d="M576.847 221.237L578.592 264.236L580.747 277.68L578.694 290.097L580.849 300.462L572.538 316.882L576.027 326.837L589.058 330.634V319.858L602.705 325.811L607.733 313.804L618.199 319.55L622.611 309.596L627.434 293.587H640.978L636.258 283.427L630.409 215.592H612.76L584.235 218.055L583.722 215.798C582.594 217.029 581.26 218.158 579.823 219.287C578.694 220.108 577.771 220.723 576.847 221.237Z" fill="white"/>
<path d="M705.929 317.499L712.393 326.837L723.475 322.938L729.734 323.451L737.738 315.036L745.023 309.083L750.769 279.22L758.362 284.351L765.339 271.215H773.445V256.437H767.905L764.416 262.902L760.414 260.747L750.461 271.01L748.819 252.537L726.143 256.848L724.706 247.406L723.065 259.208L710.341 270.086V282.298H701.517L692.385 294.921L689.614 304.157L697.515 314.933L705.929 317.499Z" fill="white"/>
<path d="M474.752 145.705L493.735 162.946V174.645L497.839 186.344V195.067L508.818 198.557L562.38 195.478C560.738 170.232 565.048 134.519 569.768 121.178C563.919 127.951 554.479 138.008 554.479 138.008L561.354 121.896L556.429 115.842V105.99H549.554V101.679H533.752L530.674 97.2666L510.562 94.5983L507.689 89.8776L503.482 87.1068H495.069L497.736 83.4123L495.889 82.1808L498.249 78.589L500.199 79.9231L502.764 76.4339C503.072 76.0234 502.662 75.5103 502.149 75.6129L482.448 82.7966H474.547L470.032 89.0566L473.008 102.911L457.616 115.021L462.952 127.746L462.439 139.856L474.752 145.705Z" fill="white"/>
<path d="M572.436 116.15C571.512 116.868 570.691 118.613 569.767 121.076C573.872 116.355 576.233 113.173 572.436 116.15Z" fill="white"/>
<path d="M536.932 382.253L538.574 371.99L545.551 361.523L539.292 353.415L531.802 333.814L515.282 320.268L521.131 306.106H509.331V295.125L490.04 263.311L481.011 256.436L401.386 257.77L412.673 275.524H425.705L419.651 291.122L427.859 297.998L429.809 361.317L431.348 372.298L531.904 368.193L527.8 382.253H536.932Z" fill="white"/>
<path d="M369.578 196.402L352.647 198.66L344.644 194.247L233.006 185.011L229.004 235.707H271.381L269.227 269.368L407.441 275.32L395.23 256.334V243.199L389.587 230.678V221.647L381.583 202.252L369.578 196.402Z" fill="white"/>
<path d="M393.896 220.723V229.754L399.642 242.274V253.563L482.447 252.126L491.374 259.002L501.943 247.713L496.505 233.962L508.1 228.215L515.385 212L507.279 202.559L493.529 198.043V186.96L490.143 177.108L388.868 176.903L385.687 181.829L390.1 191.373L385.585 200.712L393.896 220.723Z" fill="white"/>
<path d="M425.396 359.266L423.652 300.052L414.417 292.458L419.343 279.835H415.546L415.649 279.938L268.918 273.678L263.89 353.211L425.396 359.266Z" fill="white"/>
<path d="M99.922 112.969L87.4037 196.71H87.1985L82.1707 219.8L224.592 236.631L233.108 129.902L99.922 112.969Z" fill="white"/>
<path d="M520.413 211.385L511.383 231.396L501.943 236.117L506.971 248.74L494.35 262.184L513.641 293.997V301.796H527.493L520.413 319.037L535.394 331.25L543.089 351.364L547.604 357.316L553.145 344.18L563.201 348.901L568.023 336.586L571.82 328.581L567.613 316.677L576.129 299.949L574.077 290.303L576.232 277.68L574.18 264.544L572.435 222.16C566.894 221.544 563.816 212.411 562.585 199.686L512.82 202.559L520.413 211.385Z" fill="white"/>
<path d="M266.661 241.659L266.764 240.017H253.22L266.661 241.659Z" fill="white"/>
<path d="M634.616 215.182L640.362 281.169L654.214 285.582L658.011 291.431L668.477 288.969L680.072 291.637H689.409L699.362 277.885H706.134V268.033L719.166 256.95L722.449 232.525L715.985 191.989L720.294 191.27L729.837 251.613L836.037 231.396L844.143 222.879L828.034 207.177L840.039 186.242L825.879 183.266V173.619L729.016 190.039V180.598H733.326V184.908L830.188 168.488V179.879L842.296 182.342L842.604 181.829L859.329 191.476L862.408 175.569L857.79 158.944V141.087L854.096 119.844L846.811 114.61V95.6248L842.296 80.5391C830.496 83.6178 818.491 85.6703 812.129 84.1309C796.635 80.2312 795.712 107.837 795.712 107.837L789.042 110.711C788.324 111.018 787.914 111.634 787.811 112.353L787.298 116.15C787.093 117.381 788.016 118.51 789.247 118.51L790.274 118.613C793.044 118.818 795.301 120.973 795.609 123.641C796.635 131.954 791.813 148.066 740.303 149.297C739.072 149.297 738.354 150.631 738.969 151.76L743.997 160.381C745.331 162.638 744.715 165.512 742.56 167.051L680.38 212.206C679.456 212.821 678.327 213.129 677.301 212.821L666.322 210.153L634.616 215.182Z" fill="white"/>
<path d="M243.267 103.116L242.548 115.123L237.521 128.464L233.314 180.7L345.978 190.039L353.468 194.246L370.296 191.989L382.301 197.736L385.38 191.373L380.865 181.418L385.585 174.132V128.772L376.247 117.073L380.967 108.555L243.267 103.116Z" fill="white"/>
<path d="M844.143 187.781L833.369 206.561L850.095 222.981L838.089 235.604L829.983 237.143L839.731 269.059H849.684C849.582 267.417 849.274 265.878 848.863 264.339L833.677 246.072C833.164 245.353 833.677 244.43 834.601 244.635L847.016 247.406V252.332C847.016 252.845 847.632 253.05 847.94 252.742C852.249 247.919 869.18 227.394 861.484 208.717L853.788 206.767C853.788 206.767 854.404 201.841 857.38 195.478L844.143 187.781Z" fill="white"/>
<path d="M851.12 95.1106V112.454L858.097 117.38L861.689 138.521L875.028 136.673L871.231 125.077L873.489 113.07L871.129 95.6237L879.748 85.7718L875.849 77.254L877.593 61.8604L881.903 62.3735L880.261 76.5357L884.776 86.4902L875.643 96.9578L877.798 113.172L875.541 124.769L879.235 136.058L894.113 133.902L898.936 127.95L907.863 123.23V115.841H900.27L897.397 103.731L885.186 60.0132C884.468 60.5263 883.647 60.8342 882.826 60.8342L880.364 60.9368C877.901 61.0394 875.849 62.9893 875.746 65.4523L875.643 66.5811C875.541 68.8388 874.002 70.7887 871.95 71.6097C866.922 73.4569 856.969 76.7409 846.4 79.717L851.12 95.1106Z" fill="white"/>
<path d="M681.199 404.729H654.008L636.052 406.371L651.853 454.502L655.958 474.616L662.422 481.081L657.599 494.422L665.295 505.711L662.319 514.742L667.142 523.362L718.652 516.589L731.683 522.336V509.816H746.356C744.304 498.938 744.919 487.341 750.358 476.053L747.792 476.36L744.406 464.867L737.019 455.938V447.01H725.424L719.678 436.85L709.622 430.282L703.158 419.096L684.996 410.989L686.946 401.958L681.199 404.729Z" fill="white"/>
<path d="M23.4787 -14.0801L18.0404 8.59984L23.3761 16.8098L20.6056 25.0197L26.8648 29.4325L32.6109 44.313L43.8978 49.4442L31.1743 81.0524L34.15 82.6944L46.463 76.0238V95.7276L54.7743 105.169L57.0317 119.126L62.8804 116.766L71.0891 117.381L80.8369 116.56L88.2247 111.634L94.5865 120.05L96.3308 108.043L234.032 125.591L238.341 114.097L243.78 18.5544C158.306 11.9864 82.3761 -1.25207 23.4787 -14.0801Z" fill="white"/>
<path d="M895.755 166.538L893.703 154.736L862.51 160.381L866.614 175.466L865.075 183.368C871.437 176.39 881.082 169.719 895.755 166.538Z" fill="white"/>
<path d="M796.738 411.502L771.599 392.209L745.331 393.338L717.216 386.564L691.564 399.392L689.614 408.423L705.929 415.71L712.599 427.204L722.757 433.771L727.785 442.7H741.124V454.399L748.101 462.814L750.667 471.64L752.616 471.332C754.463 468.253 756.72 465.277 759.286 462.301L782.475 434.695H786.067C786.887 434.695 787.606 433.977 787.503 433.053C786.99 428.948 786.682 417.967 796.738 411.502Z" fill="white"/>
<path d="M336.948 440.135L345.054 435.825L350.595 445.779L359.214 442.598L367.936 448.961L375.837 441.982L388.971 449.474L396.769 447.113H407.338L414.828 442.393L426.115 451.218L432.887 413.863L425.705 363.577L261.531 357.42H242.446L241.42 369.222H309.962L305.755 422.894L308.936 428.641H324.533V435.619L336.948 440.135Z" fill="white"/>
<path d="M-21.4638 109.273L-36.5472 170.026L83.8128 191.68L93.5606 126.103L87.0963 117.586L82.171 120.87L70.9867 121.793L63.4962 121.28L53.6458 125.282L50.6702 107.221L42.051 97.4713V83.3092L34.0475 87.722L25.6336 83.0013L38.2545 51.701L29.1223 47.4934L23.171 32.0998L15.3728 26.5581L18.451 17.3219L13.218 9.31721L19.0667 -15.1073C14.4493 -16.1336 9.9345 -17.1598 5.52232 -18.186L-11.1003 44.2094L-9.15072 60.3214L-2.37854 76.0229L-21.8742 85.0538L-17.8725 92.2374L-29.9803 105.579L-21.4638 109.273Z" fill="white"/>
<path d="M668.785 383.074L683.869 375.891L685.613 370.554H693.001L699.157 362.447H710.034L714.549 352.082L682.74 355.982L634.411 363.679H579.926L575.822 372.504L542.474 374.762L538.575 399.084L528.622 406.268L530.469 411.912L653.804 400.418H660.679V389.848H668.785V383.074Z" fill="white"/>
<path d="M536.214 386.565H522.054L526.056 372.71L431.964 376.61L437.299 413.965L437.197 414.273L430.219 452.962H444.584V469.793H506.765L505.842 467.125L503.379 454.707L512.922 438.595L514.051 428.435L526.569 413.76L523.491 404.627L534.572 396.622L536.214 386.565Z" fill="white"/>
<path d="M958.962 41.2339L951.882 41.5418L951.266 35.2817C951.061 33.3319 949.419 31.8951 947.47 31.9978L941.211 32.3056C941.211 32.3056 944.597 16.2963 929.103 -7.40988C913.609 -31.116 905.913 -3.51016 905.913 -3.51016L905.811 -4.5364C905.605 -7.71775 902.835 -10.0781 899.654 -9.97548C898.218 -9.87286 896.986 -8.84662 896.576 -7.40988L891.548 14.1412C891.445 14.6543 891.343 15.1674 891.343 15.6805V34.3581C891.343 35.8975 891.856 37.3342 892.779 38.4631C893.908 39.8998 893.703 41.9523 892.369 43.1838L888.675 46.673C887.546 47.6992 886.931 49.136 886.931 50.6753V56.1144C886.931 56.7302 886.828 57.3459 886.623 57.859L888.88 57.2433L901.604 102.5L903.758 111.429H907.863V102.193C907.863 102.193 927.256 94.9063 928.692 86.6964C930.129 78.4865 929.205 70.687 929.205 70.687L938.953 79.1022C939.466 79.6153 940.287 79.7179 940.903 79.4101L946.854 76.8445C947.983 76.3314 948.291 74.9972 947.675 74.0736L945.315 70.687C944.391 69.3529 945.007 67.4031 946.649 66.9926C951.984 65.6585 961.527 62.4771 961.527 56.6275V43.6969C961.63 42.3628 960.398 41.1313 958.962 41.2339Z" fill="white"/>
<path d="M226.849 488.47L144.865 483.647V485.699L226.029 496.27L226.849 488.47Z" fill="white"/>
<path d="M449.51 542.45L452.793 525.414L448.484 514.536L438.018 501.092L440.172 482.312V457.272H429.398L429.091 459.016L414.52 447.625L408.569 451.319H397.384L388.458 453.988L376.452 447.112L368.346 454.398L358.598 447.317L348.748 450.909L343.412 441.468L337.256 444.752L320.223 438.389V432.745H306.371L301.343 423.714L305.242 373.325H241.009L231.158 488.572L229.824 500.989L147.224 490.317C149.174 496.987 154.407 509.199 167.438 518.128C186.113 531.058 183.856 552.712 183.856 552.712C183.856 552.712 188.576 567.079 213.407 575.7C215.664 576.521 218.127 575.597 219.358 573.545C223.36 566.874 232.8 552.609 239.675 553.43C248.704 554.354 279.077 555.072 286.157 599.919L306.473 622.804L311.398 641.584C311.398 641.584 320.428 656.465 354.905 668.267C357.88 669.293 360.958 667.035 360.958 663.956V620.752C360.958 618.802 361.984 617.057 363.729 616.134C374.708 610.079 416.162 586.681 440.378 564.719H446.945L449.51 542.45Z" fill="white"/>
<path d="M572.23 481.081V480.876L576.437 433.463L574.59 412.118L530.161 416.223L518.361 430.18L517.232 439.929L508.1 455.425L510.255 466.098L516.924 486.623L509.639 499.348L504.406 526.338H550.99L548.938 537.832C549.143 537.832 549.451 537.729 549.656 537.729H573.975H575.924L572.23 481.081Z" fill="white"/>
<path d="M561.25 565.231H550.374V559.69H557.864V547.067C557.864 545.835 556.838 544.912 555.709 544.912C554.478 544.912 553.555 545.938 553.555 547.067V551.89L553.657 552.198L549.758 554.148L548.835 552.198C546.577 551.89 544.833 550.043 544.833 547.683V544.091L543.704 541.73L545.756 530.75H499.069L505.431 497.91L512.101 486.211L508.201 474.101H444.584V482.619L442.635 499.757L452.382 512.277L457.308 524.9L453.819 543.064L451.356 564.513H496.709C497.53 564.513 498.146 563.897 498.146 563.076C498.146 562.255 497.53 561.639 496.709 561.639H488.398C488.398 561.639 499.582 551.274 511.382 569.336V573.544C511.382 576.109 513.435 578.162 515.897 578.162L523.593 578.264C524.721 578.264 525.85 577.854 526.774 577.136L533.443 571.286H535.598V574.057C535.598 575.494 536.727 576.622 538.163 576.622C539.6 576.622 540.728 575.494 540.728 574.057V568.618C540.728 566.976 542.062 565.642 543.704 565.642H545.243C546.269 565.642 547.193 566.155 547.706 566.976L550.066 570.465C550.989 571.799 552.426 572.62 554.068 572.62H561.455C563.61 572.62 565.355 570.876 565.355 568.72C565.149 566.976 563.405 565.231 561.25 565.231Z" fill="white"/>
<path d="M140.555 479.029L227.259 484.16L238.136 357.111L109.157 344.078L88.0194 497.091L100.64 499.348C102.795 499.759 104.745 498.117 104.745 495.859V488.265C104.745 486.725 105.976 485.494 107.515 485.494H140.452V479.029H140.555Z" fill="white"/>
<path d="M104.848 343.564L-2.27568 322.115L-5.66177 340.485C-5.9696 342.024 -6.79047 343.564 -8.02177 344.59L-11.7157 347.669C-14.1783 349.721 -17.667 349.824 -20.2322 348.079C-20.9505 347.566 -21.8739 347.463 -22.7974 347.771C-23.6183 348.182 -24.2339 348.9 -24.3365 349.824L-24.8496 352.8C-24.8496 352.902 -24.8496 353.108 -24.8496 353.21V362.446C-24.8496 363.267 -24.9522 363.986 -25.26 364.807L-29.3644 376.506V379.379C-29.3644 379.687 -29.2618 379.995 -29.0566 380.303L-21.1557 392.926C-20.2322 394.465 -19.9244 396.312 -20.54 398.057C-21.0531 399.802 -22.387 401.136 -24.0287 401.751L-28.5435 403.496C-29.1592 403.701 -29.5696 404.214 -29.5696 404.83L-30.5957 412.938C-30.9035 415.093 -32.2374 416.837 -34.187 417.761L-38.5992 419.608C-39.2148 419.916 -39.6253 420.532 -39.6253 421.147V426.997C-39.6253 427.51 -39.42 428.023 -39.0096 428.331C-37.3679 429.665 -36.547 431.615 -36.8548 433.668C-37.06 435.72 -38.2913 437.465 -40.1383 438.388L-46.9105 441.775C-47.1157 442.185 -46.9105 442.596 -46.5 442.698C-42.7035 443.417 -27.0044 448.959 33.3295 487.545L83.6078 496.473L104.848 343.564Z" fill="white"/>
<path d="M603.013 533.112L591.11 520.49L658.216 512.998L660.371 506.43L652.573 495.142L657.19 482.313L651.752 476.874L647.442 455.734L631.435 406.885L578.592 411.811L580.541 433.567V433.772L576.334 481.185L579.926 537.936H584.133V530.957C584.133 529.521 585.364 528.289 586.8 528.289H593.573V533.112C593.573 536.191 596.035 538.654 599.114 538.654H602.807V533.112H603.013Z" fill="white"/>
<path d="M922.023 137.29C921.51 136.469 920.176 136.777 920.074 137.701L919.253 143.14C918.945 145.295 916.482 146.424 914.636 145.295L910.018 142.627C908.684 141.806 907.863 140.369 907.863 138.83V128.054L901.707 131.338L896.371 138.009L880.569 140.266L861.997 142.935V156.173L902.425 148.784L911.763 159.047V156.789H918.637L929.822 153.813C931.463 153.402 932.079 151.453 931.156 150.118L922.023 137.29Z" fill="white"/>
<path d="M900.886 153.401L898.013 153.914L900.065 165.716C902.63 165.306 905.298 164.998 908.171 164.793C908.992 164.69 909.71 164.382 910.326 163.972L900.886 153.401Z" fill="white"/>
<path d="M841.27 348.08L840.962 340.999H848.863C850.505 340.999 851.633 339.151 850.812 337.715L846.195 329.197L732.094 350.029H731.992L719.473 351.569L712.804 366.86H701.312L695.155 375.07H688.691L687.254 379.175L672.992 385.948V394.363H664.885V400.623H680.072L716.6 382.356L745.639 389.334L772.932 388.103L800.945 409.551C803.407 408.525 806.28 407.807 809.666 407.294C809.666 407.294 807.717 390.874 830.496 381.638C853.275 372.402 843.117 367.578 843.117 367.578L835.011 368.091C833.677 368.194 832.651 367.168 832.651 365.834V361.729C832.651 360.497 833.677 359.471 834.908 359.471H845.169C846.913 359.471 848.452 358.752 849.684 357.624C851.531 355.674 853.993 352.39 853.993 348.182C853.788 341.306 841.27 348.08 841.27 348.08Z" fill="white"/>
<path d="M773.753 572.211L780.012 566.874C780.012 566.874 754.565 543.373 746.972 514.125H735.685V529.006L717.729 521.104L664.577 528.082L658.626 517.307L600.139 523.772L607.322 531.366V535.061C607.527 534.958 607.835 534.958 608.04 534.958H613.581C615.223 534.958 616.454 533.624 616.454 532.085H631.743C631.743 532.085 650.11 534.24 653.496 547.581C656.882 560.922 677.506 542.758 678.224 535.471L689.614 534.958L709.007 554.559H720.397V589.657V594.07C720.397 595.506 721.628 596.738 723.064 596.738H723.372C724.809 596.738 726.04 595.506 726.04 594.07V588.733H734.146V596.841L727.579 603.408L744.51 628.859H752.924V635.017H756.104V641.482H763.8C763.8 641.482 773.24 644.15 775.497 656.465C775.703 657.594 776.729 658.312 777.857 658.21L793.249 656.055L776.524 671.551C774.984 672.988 775.19 675.553 777.037 676.682C777.242 676.785 777.447 676.785 777.55 676.682L800.021 657.081C800.021 657.081 806.793 639.122 800.021 616.852C793.146 594.48 773.753 572.211 773.753 572.211Z" fill="white"/>
<path d="M836.447 273.37L825.674 237.964L753.129 251.716L753.95 261.26L759.594 255.41L762.672 257.052L765.34 252.126H773.446V251.408L789.35 256.026L807.614 260.234L805.46 276.448L819.107 279.732C819.825 278.911 820.748 278.398 820.748 278.398C820.748 278.398 806.178 266.289 816.849 247.406L829.88 286.095C830.086 286.608 830.701 286.608 830.907 286.095L832.959 280.348C833.267 279.527 834.498 279.63 834.6 280.553L835.729 291.431L840.962 296.05L842.604 296.152C845.682 289.789 848.966 281.272 849.581 273.37H836.447Z" fill="white"/>
<path d="M844.041 325.196L838.295 314.42H829.881L824.751 304.466L830.907 302.003C830.907 302.003 826.905 290.509 822.698 285.583L821.672 284.659L800.74 279.528L802.895 263.416L788.325 260.029L777.859 257.053V275.423H768.008L760.107 290.406L753.951 286.301L749.128 311.341L740.714 318.217L731.685 327.864L724.194 327.248L710.855 331.866L707.982 327.659L681.406 351.673L682.33 351.57L731.582 345.618L844.041 325.196Z" fill="white"/>
<path d="M-98.4206 157.199L-117.608 235.809C-117.711 236.322 -117.608 236.732 -117.403 237.143L-31.0067 368.194L-29.2623 363.268C-29.1597 362.96 -29.1597 362.652 -29.1597 362.344V353.108C-29.1597 352.698 -29.1597 352.39 -29.0571 351.979L-28.5441 349.003C-28.1336 346.643 -26.5945 344.59 -24.3371 343.667C-22.0797 342.743 -19.6171 342.948 -17.6675 344.385C-16.6415 345.103 -15.3075 345.001 -14.4867 344.282L-10.7928 341.204C-10.2797 340.793 -9.97189 340.28 -9.86929 339.664L18.4507 184.189L-39.831 173.824L-98.4206 157.199Z" fill="white"/>
<path d="M836.345 297.691L836.653 300.873C836.858 302.515 839.013 302.926 839.731 301.489C839.937 301.078 840.142 300.668 840.347 300.257L839.116 300.155L836.345 297.691Z" fill="white"/>
<path d="M120.751 228.729L76.9375 223.495L82.9915 195.889L22.7602 185.011L-1.45551 317.909L105.463 339.255L120.751 228.729Z" fill="white"/>
<path d="M259.581 353.108L266.456 245.969L125.061 229.241L109.773 339.87L240.599 353.108H259.581Z" fill="white"/>
<path d="M243.472 98.8064L381.994 104.245L378.813 84.3364L372.964 52.6255V29.3299L371.22 23.0698C328.637 23.4803 287.286 21.9409 247.884 18.9648L243.472 98.8064Z" fill="white"/>
<path d="M614.71 99.7286L610.708 102.807C609.169 104.039 609.066 106.297 610.503 107.631L614.094 110.915L608.656 111.53C606.809 111.736 605.372 113.275 605.372 115.122L605.065 125.692C605.065 127.334 603.525 128.669 601.884 128.566H601.781C600.037 128.463 598.805 126.924 599.011 125.179C599.318 122.614 599.831 118.919 600.139 116.148C600.345 114.301 598.19 113.275 596.856 114.506C592.444 118.611 585.569 130.413 585.569 164.69C585.569 164.69 603.32 190.243 587.108 211.897L587.518 213.539L612.658 211.384H632.256L658.729 207.381C658.318 206.56 658.113 205.534 658.421 204.508L663.449 187.677C664.065 185.522 666.014 184.086 668.271 184.086H671.555C673.607 184.086 675.249 182.444 675.249 180.391C675.249 172.079 673.915 151.759 661.397 141.394C660.473 140.573 659.037 140.676 658.216 141.497L645.184 154.53H638.412L637.489 145.807L647.134 134.21L646.724 110.709C646.724 108.862 645.492 107.323 643.748 106.81L617.685 99.4207C616.557 98.9076 615.531 99.1128 614.71 99.7286Z" fill="white"/>
<path d="M-133.615 19.7857L-122.944 26.7641L-125.509 40.721L-112.17 44.3128L-103.858 40.9262L-92.8793 49.2388L-84.3628 45.1338L-67.9454 49.6493H-44.448L-13.8707 57.8592L-15.615 43.7997L1.41805 -19.2115C-53.4776 -31.9368 -90.0063 -43.5334 -100.37 -46.92C-101.498 -47.3305 -102.525 -46.099 -102.011 -45.0727C-98.9332 -38.2995 -91.9558 -21.5718 -95.9576 -18.801C-100.062 -15.9275 -100.78 -26.8056 -100.883 -30.808C-100.883 -31.1159 -101.396 -31.2185 -101.498 -30.9106L-101.909 -30.0896C-102.832 -28.0371 -104.782 -26.8056 -107.039 -26.703L-111.759 -26.6004C-113.401 -26.6004 -115.043 -27.0109 -116.377 -27.9345L-137.822 -42.5071C-138.643 -43.1229 -139.771 -42.5071 -139.771 -41.4809V-8.43593L-136.078 -4.94671V-2.07324C-136.078 -0.636505 -137.206 0.492359 -138.643 0.492359H-141.413C-141.926 0.492359 -142.337 0.902859 -142.337 1.41598V4.4947C-142.337 4.9052 -142.029 5.31569 -141.618 5.41832L-139.258 5.82881C-138.54 5.93143 -138.027 6.54718 -137.925 7.16292L-137.617 9.93377L-143.158 12.3968C-143.876 12.7046 -144.286 13.423 -144.286 14.244V15.5781L-133.615 19.7857Z" fill="white"/>
<path d="M406.208 22.2482C395.947 22.6587 385.789 22.864 375.734 23.0692L377.273 28.8162V52.4197L383.019 83.8226L387.123 108.966L385.789 108.863L381.377 116.765L389.893 127.335V172.592L489.526 172.798V164.793L472.391 149.297L457.923 142.421L458.539 128.361L452.382 113.481L468.286 101.063L465.413 88.0302L471.775 79.1019L474.443 81.0518C476.803 76.5363 483.986 64.0162 495.375 56.6273C505.739 49.8541 517.026 50.4698 522.053 51.1882C522.566 51.2908 522.772 50.5725 522.361 50.3672L510.356 43.594L474.033 44.1071L467.26 35.3841L456.589 34.4605L444.994 28.6109H424.165C421.907 28.6109 419.958 26.9689 419.65 24.8138L417.085 10.4464C416.674 8.39397 414.827 6.95723 412.775 7.05985C410.518 7.16248 408.774 9.11234 408.979 11.3701L410.313 16.7065C411.134 19.3747 409.081 22.1456 406.208 22.2482Z" fill="white"/>
<path d="M510.767 86.7994L513.127 90.5965L533.136 93.2647L536.009 97.3697H553.863V101.68H560.737V114.303L563.2 117.381L569.459 102.706C569.459 102.706 583.824 103.117 594.803 95.6251C596.856 94.291 599.113 93.47 601.576 93.2647L626.51 91.828C628.356 91.7254 629.28 89.4677 628.049 88.1335C625.586 85.3627 623.226 81.0525 625.689 76.0239C629.998 67.3009 608.758 80.3341 608.758 80.3341V69.1481L562.79 83.7207C562.79 83.7207 558.89 69.6612 541.447 74.074C527.595 77.5633 545.654 64.1195 553.555 58.4752C554.068 58.1673 553.657 57.3463 553.042 57.5516L530.263 66.2746L507.073 84.4391L510.767 86.7994Z" fill="white"/>
</g>
</g>
<defs>
<clipPath id="clip0_240_389">
<rect width="996" height="640" fill="white" transform="translate(-97.7704)"/>
</clipPath>
</defs>
</svg>
