<svg width="175" height="230" viewBox="0 0 175 230" fill="none" xmlns="http://www.w3.org/2000/svg">
<path d="M75.0565 221.678C75.0565 221.549 75.0565 221.42 75.0565 221.42C75.0565 221.29 75.0565 221.161 75.0565 221.032C75.0565 220.902 75.0565 220.902 75.0565 220.773C75.0565 220.644 75.0565 220.644 75.0565 220.514C75.0565 220.385 75.0565 220.255 75.1858 220.255V220.126C75.1858 219.997 75.3152 219.867 75.3152 219.738V219.609C75.3152 219.479 75.4445 219.221 75.5739 219.091C75.5739 218.962 75.7033 218.833 75.8326 218.703C75.8326 218.703 75.8326 218.574 75.962 218.574C76.0913 218.444 76.0913 218.315 76.2207 218.186C76.2207 218.186 76.2207 218.186 76.2207 218.056C76.35 217.927 76.35 217.798 76.4794 217.668C76.4794 217.668 76.4794 217.539 76.6087 217.539C76.7381 217.41 76.7381 217.28 76.8674 217.28L76.9968 217.151C77.1262 217.022 77.1262 217.022 77.2555 216.892C77.2555 216.763 77.3849 216.763 77.3849 216.634L77.5142 216.504C77.6436 216.375 77.7729 216.245 77.7729 216.245L77.9023 216.116L78.0316 215.987C78.161 215.857 78.161 215.857 78.2903 215.728L78.4197 215.599C78.5491 215.469 78.5491 215.469 78.6784 215.34L78.8078 215.211C78.9371 215.081 79.0665 215.081 79.1958 214.952C79.5839 214.564 79.8426 214.434 79.972 214.434C79.972 214.434 80.1013 214.434 80.1013 214.305C80.2307 214.305 80.36 214.176 80.36 214.176C80.4894 214.176 80.4894 214.176 80.6187 214.176H80.7481C80.8774 214.176 80.8774 214.176 81.0068 214.176H81.1361C81.2655 214.176 81.2655 214.176 81.3949 214.176C81.5242 214.176 81.6536 214.176 81.7829 214.176C81.9123 214.176 81.9123 214.176 82.0416 214.305C82.0416 214.305 82.0416 214.305 82.171 214.305C82.3003 214.305 82.4297 214.434 82.4297 214.434L79.4545 212.753C79.3252 212.753 79.3252 212.624 79.1958 212.624C79.1958 212.624 79.1958 212.624 79.0665 212.624H78.9371H78.8078H78.6784C78.5491 212.624 78.5491 212.624 78.4197 212.624H78.2903H78.0316C78.0316 212.624 78.0316 212.624 77.9023 212.624H77.7729H77.6436H77.5142H77.3849H77.2555H77.1262C76.9968 212.624 76.8674 212.753 76.8674 212.753H76.7381C76.6087 212.882 76.35 212.882 76.2207 213.012C76.0913 213.141 75.962 213.141 75.8326 213.27C75.8326 213.27 75.7033 213.27 75.7033 213.4C75.5739 213.529 75.5739 213.529 75.4446 213.658L75.3152 213.788C75.1858 213.917 75.1858 213.917 75.0565 214.046L74.9271 214.176C74.9271 214.176 74.9271 214.176 74.7978 214.305C74.7978 214.305 74.7978 214.434 74.6684 214.434C74.5391 214.564 74.4097 214.693 74.4097 214.693C74.4097 214.693 74.4097 214.823 74.2804 214.823C74.2804 214.823 74.2804 214.823 74.151 214.952C74.151 215.081 74.0217 215.081 74.0217 215.211L73.8923 215.34C73.8923 215.34 73.8923 215.469 73.7629 215.469L73.6336 215.599C73.6336 215.599 73.6336 215.728 73.5042 215.728C73.5042 215.857 73.3749 215.857 73.3749 215.987C73.3749 215.987 73.3749 216.116 73.2455 216.116C73.1162 216.245 73.1162 216.375 72.9868 216.504C72.9868 216.504 72.9868 216.504 72.9868 216.634C72.9868 216.763 72.8575 216.763 72.8575 216.892C72.8575 216.892 72.8575 217.022 72.7281 217.022C72.7281 217.022 72.7281 217.151 72.5988 217.151V217.28C72.5988 217.41 72.4694 217.539 72.4694 217.539C72.4694 217.668 72.34 217.798 72.34 217.927C72.34 217.927 72.34 217.927 72.34 218.056V218.186C72.34 218.315 72.34 218.315 72.2107 218.444V218.574V218.703V218.833C72.2107 218.962 72.2107 218.962 72.2107 219.091C72.2107 219.221 72.2107 219.221 72.2107 219.35C72.2107 219.35 72.2107 219.35 72.2107 219.479V219.609C72.2107 219.738 72.2107 219.867 72.2107 219.997V220.126C72.2107 220.255 72.2107 220.255 72.2107 220.385V220.514C72.2107 220.644 72.2107 220.902 72.2107 221.032C72.2107 222.196 72.5988 223.101 73.2455 223.619C73.3749 223.748 73.3749 223.748 73.5042 223.877L76.4794 225.559C75.7033 225.042 75.1858 224.136 75.1858 222.713C75.1858 222.584 75.1858 222.325 75.1858 222.196C75.0565 221.808 75.0565 221.678 75.0565 221.678Z" fill="#231F20"/>
<path d="M79.4543 214.696C81.912 213.273 83.8523 214.437 83.8523 217.283C83.8523 220.129 81.912 223.492 79.4543 224.915C76.9965 226.338 75.0562 225.173 75.0562 222.328C75.0562 219.482 76.9965 216.119 79.4543 214.696Z" fill="#2B2B2B"/>
<path d="M80.8773 225.17C80.8773 225.04 80.8773 224.911 80.8773 224.911C80.8773 224.782 80.8773 224.652 80.8773 224.523C80.8773 224.393 80.8773 224.393 80.8773 224.264C80.8773 224.135 80.8773 224.135 80.8773 224.005C80.8773 223.876 80.8773 223.747 81.0066 223.747V223.617C81.0066 223.488 81.136 223.359 81.136 223.229V223.1C81.136 222.971 81.2654 222.712 81.3947 222.582C81.3947 222.453 81.5241 222.324 81.6534 222.194C81.6534 222.194 81.6534 222.065 81.7828 222.065C81.9121 221.936 81.9121 221.806 82.0415 221.677C82.0415 221.677 82.0415 221.677 82.0415 221.548C82.1708 221.418 82.1708 221.289 82.3002 221.03C82.3002 221.03 82.3002 220.901 82.4295 220.901C82.5589 220.772 82.5589 220.642 82.6883 220.642L82.8176 220.513C82.947 220.383 82.947 220.383 83.0763 220.254C83.0763 220.125 83.2057 220.125 83.2057 219.995C83.2057 219.866 83.335 219.866 83.335 219.866C83.4644 219.737 83.5937 219.607 83.5937 219.607L83.7231 219.478L83.8524 219.349C83.9818 219.219 83.9818 219.219 84.1112 219.09L84.2405 218.961C84.3699 218.831 84.3699 218.831 84.4992 218.702L84.6286 218.573C84.7579 218.443 84.8873 218.443 85.0166 218.314C85.146 218.184 85.4047 218.055 85.534 218.055C85.534 218.055 85.6634 218.055 85.6634 217.926C85.7928 217.926 85.9221 217.796 85.9221 217.796C86.0515 217.796 86.0515 217.796 86.1808 217.796H86.3102C86.4395 217.796 86.5689 217.796 86.5689 217.796C86.6982 217.796 86.6982 217.796 86.6982 217.796H87.0863C87.0863 217.796 87.345 217.796 87.4744 217.796H87.6037C87.7331 217.796 87.7331 217.796 87.8624 217.926H87.9918C88.1211 217.926 88.2505 218.055 88.2505 218.055L85.2753 216.373C85.146 216.373 85.146 216.244 85.0166 216.244C85.0166 216.244 85.0166 216.244 84.8873 216.244H84.7579C84.6286 216.244 84.6286 216.244 84.6286 216.244C84.6286 216.244 84.6286 216.244 84.4992 216.244C84.3699 216.244 84.3699 216.244 84.2405 216.244H84.1112C83.9818 216.244 83.9818 216.244 83.8524 216.244H83.7231H83.5937H83.4644H83.335H83.2057H83.0763H82.947C82.8176 216.244 82.6883 216.373 82.6883 216.373H82.5589C82.4295 216.503 82.1708 216.503 82.0415 216.632C81.9121 216.762 81.7828 216.762 81.6534 216.891L81.5241 217.02C81.3947 217.15 81.3947 217.15 81.2654 217.279L81.136 217.408C81.0066 217.538 81.0066 217.538 80.8773 217.667L80.7479 217.796C80.7479 217.796 80.7479 217.796 80.6186 217.926C80.6186 217.926 80.6186 218.055 80.4892 218.055C80.3599 218.184 80.2305 218.314 80.2305 218.314L80.1012 218.443C80.1012 218.443 80.1012 218.443 79.9718 218.573C79.9718 218.702 79.8425 218.702 79.8425 218.831L79.7131 218.961C79.7131 218.961 79.7131 219.09 79.5837 219.09L79.4544 219.219C79.4544 219.219 79.4544 219.349 79.325 219.349C79.325 219.478 79.1957 219.478 79.1957 219.607C79.1957 219.607 79.1957 219.737 79.0663 219.737C78.937 219.866 78.937 219.995 78.8076 220.125C78.8076 220.125 78.8076 220.125 78.8076 220.254C78.8076 220.383 78.6783 220.383 78.6783 220.513C78.6783 220.513 78.6783 220.642 78.5489 220.642C78.5489 220.642 78.5489 220.772 78.4196 220.772V220.901C78.4196 221.03 78.2902 221.16 78.2902 221.16C78.2902 221.289 78.1609 221.418 78.1609 221.548C78.1609 221.548 78.1609 221.548 78.1609 221.677V221.806C78.1609 221.936 78.1608 221.936 78.0315 222.065V222.194V222.324V222.453C78.0315 222.583 78.0315 222.582 78.0315 222.712C78.0315 222.841 78.0315 222.841 78.0315 222.971C78.0315 222.971 78.0315 222.971 78.0315 223.1V223.229C78.0315 223.359 78.0315 223.488 78.0315 223.617C78.0315 223.617 78.0315 223.617 78.0315 223.747C78.0315 223.876 78.0315 223.876 78.0315 224.005V224.135C78.0315 224.264 78.0315 224.523 78.0315 224.652C78.0315 225.816 78.4196 226.722 79.0663 227.239C79.1957 227.369 79.1957 227.369 79.325 227.498L82.1708 228.662C81.3947 228.145 80.8773 227.239 80.8773 225.816C80.8773 225.687 80.8773 225.428 80.8773 225.299V225.17Z" fill="#231F20"/>
<path d="M85.2758 218.182C87.7335 216.76 89.6738 217.924 89.6738 220.77C89.6738 223.615 87.7335 226.979 85.2758 228.401C82.818 229.824 80.8777 228.66 80.8777 225.814C80.8777 222.969 82.818 219.605 85.2758 218.182Z" fill="#2B2B2B"/>
<path d="M8.43935 183.261C8.43935 183.132 8.43935 183.002 8.43935 183.002C8.43935 182.873 8.43935 182.743 8.43935 182.614C8.43935 182.485 8.43935 182.485 8.43935 182.355C8.43935 182.226 8.43935 182.226 8.43935 182.097C8.43935 181.967 8.43935 181.838 8.56871 181.838V181.709C8.56871 181.579 8.69806 181.45 8.69806 181.321V181.191C8.69806 181.062 8.82741 180.803 8.95677 180.674C8.95677 180.544 9.08613 180.415 9.21548 180.286C9.21548 180.286 9.21548 180.156 9.34484 180.156C9.47419 180.027 9.47418 179.898 9.60354 179.768C9.60354 179.768 9.60354 179.768 9.60354 179.639C9.73289 179.51 9.7329 179.38 9.86225 179.122C9.86225 179.122 9.86224 178.992 9.9916 178.992C10.121 178.863 10.121 178.733 10.2503 178.733L10.3797 178.604C10.509 178.475 10.509 178.475 10.6384 178.345C10.6384 178.216 10.7677 178.216 10.7677 178.087C10.7677 177.957 10.8971 177.957 10.8971 177.957C11.0264 177.828 11.1558 177.699 11.1558 177.699L11.2851 177.569L11.4145 177.44C11.5439 177.311 11.5439 177.311 11.6732 177.181L11.8026 177.052C11.9319 176.923 11.9319 176.923 12.0613 176.793L12.1906 176.664C12.32 176.534 12.4493 176.534 12.5787 176.405C12.708 176.276 12.9668 176.146 13.0961 176.146C13.0961 176.146 13.2255 176.146 13.2255 176.017C13.3548 176.017 13.4842 175.888 13.4842 175.888C13.6135 175.888 13.6135 175.888 13.7429 175.888H13.8722C14.0016 175.888 14.0016 175.888 14.1309 175.888H14.2603H14.519C14.6484 175.888 14.7777 175.888 14.9071 175.888C15.0364 175.888 15.0364 175.888 15.1658 176.017C15.1658 176.017 15.1658 176.017 15.2951 176.017C15.4245 176.017 15.5538 176.146 15.5538 176.146L12.5787 174.465C12.4493 174.465 12.4493 174.335 12.32 174.335H12.1906H12.0613H11.9319C11.8026 174.335 11.8026 174.335 11.8026 174.335H11.6732C11.5439 174.335 11.5439 174.335 11.4145 174.335C11.4145 174.335 11.4145 174.335 11.2851 174.335C11.2851 174.335 11.1558 174.335 11.0264 174.335H10.8971H10.7677H10.6384C10.509 174.335 10.509 174.335 10.509 174.335C10.3797 174.335 10.3797 174.335 10.3797 174.335C10.2503 174.335 10.2503 174.335 10.2503 174.335H10.121C9.9916 174.335 9.86225 174.465 9.86225 174.465H9.7329C9.60354 174.594 9.34483 174.594 9.21548 174.724C9.08613 174.853 8.95676 174.853 8.82741 174.982C8.82741 174.982 8.69806 174.982 8.69806 175.112C8.56871 175.241 8.5687 175.241 8.43935 175.37L8.30999 175.5C8.18064 175.629 8.18064 175.629 8.05129 175.758L7.92193 175.888C7.92193 175.888 7.92193 175.888 7.79258 176.017C7.79258 176.017 7.79259 176.146 7.66323 176.146C7.53388 176.276 7.40452 176.405 7.40452 176.405C7.40452 176.405 7.40451 176.534 7.27516 176.534C7.27516 176.534 7.27517 176.534 7.14581 176.664C7.14581 176.793 7.01646 176.793 7.01646 176.923L6.8871 177.052C6.8871 177.052 6.8871 177.181 6.75774 177.181L6.6284 177.311C6.6284 177.311 6.6284 177.44 6.49904 177.44C6.49904 177.569 6.36968 177.569 6.36968 177.699C6.36968 177.699 6.36968 177.828 6.24033 177.828C6.11097 177.957 6.11098 178.087 5.98163 178.216C5.98163 178.216 5.98163 178.216 5.98163 178.345C5.98163 178.475 5.85227 178.475 5.85227 178.604C5.85227 178.604 5.85227 178.733 5.72291 178.733C5.72291 178.733 5.72291 178.863 5.59355 178.863V178.992C5.59355 179.122 5.46421 179.251 5.46421 179.251C5.46421 179.38 5.33485 179.51 5.33485 179.639C5.33485 179.639 5.33485 179.639 5.33485 179.768V179.898C5.33485 180.027 5.33485 180.027 5.20549 180.156V180.286V180.415V180.544C5.20549 180.674 5.20549 180.674 5.20549 180.803C5.20549 180.933 5.20549 180.933 5.20549 181.062C5.20549 181.062 5.20549 181.062 5.20549 181.191V181.321C5.20549 181.45 5.20549 181.579 5.20549 181.709V181.838C5.20549 181.967 5.20549 181.967 5.20549 182.097V182.226C5.20549 182.355 5.20549 182.614 5.20549 182.743C5.20549 183.908 5.59356 184.813 6.24033 185.331C6.36968 185.46 6.36969 185.46 6.49904 185.589L9.47418 187.271C8.69806 186.753 8.18065 185.848 8.18065 184.425C8.18065 184.296 8.18065 184.037 8.18065 183.908C8.43936 183.39 8.43935 183.261 8.43935 183.261Z" fill="#231F20"/>
<path d="M12.8379 176.276C15.2956 174.853 17.236 176.018 17.236 178.863C17.236 181.709 15.2956 185.072 12.8379 186.495C10.3802 187.918 8.43985 186.754 8.43985 183.908C8.43985 181.062 10.3802 177.699 12.8379 176.276Z" fill="#2B2B2B"/>
<path d="M14.3896 186.754C14.3896 186.625 14.3896 186.495 14.3896 186.495C14.3896 186.366 14.3896 186.237 14.3896 186.107C14.3896 185.978 14.3896 185.978 14.3896 185.849C14.3896 185.719 14.3896 185.719 14.3896 185.59C14.3896 185.461 14.3896 185.331 14.519 185.331V185.202C14.519 185.072 14.6483 184.943 14.6483 184.814V184.684C14.6483 184.555 14.7777 184.296 14.907 184.167C14.907 184.038 15.0364 183.908 15.1657 183.779C15.1657 183.779 15.1657 183.65 15.2951 183.65C15.4244 183.52 15.4244 183.391 15.5538 183.262C15.5538 183.262 15.5538 183.262 15.5538 183.132C15.6831 183.003 15.6832 182.873 15.8125 182.615C15.8125 182.615 15.8125 182.485 15.9419 182.485C16.0712 182.356 16.0712 182.227 16.2006 182.227L16.3299 182.097C16.3299 181.968 16.4593 181.968 16.5886 181.839C16.5886 181.709 16.718 181.709 16.718 181.58C16.718 181.451 16.8473 181.451 16.8473 181.451C16.9767 181.321 17.1061 181.192 17.1061 181.192L17.2354 181.062L17.3648 180.933C17.4941 180.804 17.4941 180.804 17.6235 180.674L17.7528 180.545C17.8822 180.416 17.8822 180.416 18.0115 180.286L18.1409 180.157C18.2702 180.028 18.3996 180.028 18.5289 179.898C18.6583 179.769 18.917 179.64 19.0464 179.64C19.0464 179.64 19.1757 179.64 19.1757 179.51C19.3051 179.51 19.4344 179.381 19.4344 179.381C19.5638 179.381 19.5638 179.381 19.6931 179.381H19.8225C19.9519 179.381 20.0812 179.381 20.0812 179.381H20.2106C20.3399 179.381 20.4693 179.381 20.5986 179.381C20.728 179.381 20.8573 179.381 20.9867 179.381C20.9867 179.381 20.9867 179.381 21.1161 179.381C21.2454 179.381 21.2454 179.381 21.3748 179.51H21.5041C21.6335 179.51 21.7628 179.64 21.7628 179.64L18.7877 177.958C18.6583 177.958 18.6583 177.829 18.5289 177.829H18.3996H18.2702H18.1409C18.1409 177.829 18.1409 177.829 18.0115 177.829C17.8822 177.829 17.8822 177.829 17.8822 177.829H17.7528H17.6235H17.3648H17.2354H17.1061H16.9767H16.8473H16.718H16.5886H16.4593C16.3299 177.829 16.2006 177.958 16.2006 177.958H16.0712C15.9419 178.087 15.6831 178.087 15.5538 178.217C15.4244 178.346 15.2951 178.346 15.1657 178.475L15.0364 178.605C14.907 178.734 14.907 178.734 14.7777 178.863L14.6483 178.993C14.519 179.122 14.519 179.122 14.3896 179.252L14.2602 179.381C14.2602 179.381 14.2603 179.381 14.1309 179.51C14.1309 179.51 14.1309 179.64 14.0015 179.64C13.8722 179.769 13.7428 179.898 13.7428 179.898C13.7428 179.898 13.7428 180.028 13.6135 180.028C13.6135 180.028 13.6135 180.028 13.4841 180.157C13.4841 180.286 13.3548 180.286 13.3548 180.416L13.2254 180.545C13.2254 180.545 13.2254 180.674 13.0961 180.674L12.9667 180.804C12.9667 180.804 12.9667 180.933 12.8373 180.933C12.8373 181.062 12.708 181.062 12.708 181.192C12.708 181.192 12.708 181.321 12.5786 181.321C12.4493 181.451 12.4493 181.58 12.3199 181.709C12.3199 181.709 12.3199 181.709 12.3199 181.839C12.3199 181.968 12.1906 181.968 12.1906 182.097V182.227C12.1906 182.227 12.1906 182.356 12.0612 182.356V182.485C12.0612 182.615 11.9319 182.744 11.9319 182.744C11.9319 182.873 11.8025 183.003 11.8025 183.132C11.8025 183.132 11.8025 183.132 11.8025 183.262V183.391C11.8025 183.52 11.8025 183.52 11.6731 183.65V183.779V183.908V184.038C11.6731 184.167 11.6731 184.167 11.6731 184.296C11.6731 184.426 11.6731 184.426 11.6731 184.555C11.6731 184.555 11.6731 184.555 11.6731 184.684V184.814C11.6731 184.943 11.6731 185.072 11.6731 185.202V185.331C11.6731 185.461 11.6731 185.461 11.6731 185.59V185.719C11.6731 185.849 11.6731 186.107 11.6731 186.237C11.6731 187.401 12.0612 188.306 12.708 188.824C12.8373 188.953 12.8373 188.953 12.9667 189.083L15.9419 190.764C15.1657 190.247 14.6483 189.341 14.6483 187.918C14.6483 187.789 14.6483 187.53 14.6483 187.401C14.3896 186.754 14.3896 186.754 14.3896 186.754Z" fill="#231F20"/>
<path d="M18.7871 179.64C21.2449 178.218 23.1852 179.382 23.1852 182.228C23.1852 185.073 21.2449 188.437 18.7871 189.859C16.3294 191.282 14.3891 190.118 14.3891 187.272C14.3891 184.556 16.3294 181.063 18.7871 179.64Z" fill="#2B2B2B"/>
<path d="M149.824 127.768V148.335L141.804 152.992L141.934 132.295L149.824 127.768Z" fill="#939598"/>
<path d="M141.934 132.292L141.805 152.989L121.108 140.959V120.392L141.934 132.292Z" fill="#808285"/>
<path d="M149.824 127.766L141.934 132.293L121.108 120.393L129.128 115.736L149.824 127.766Z" fill="#E6E7E8"/>
<path d="M143.743 37.4746L143.484 127.893L140.379 129.704L140.638 39.2856L143.743 37.4746Z" fill="#A7A9AC"/>
<path d="M140.638 39.2882L140.379 129.707L127.056 122.075L127.315 31.6562L140.638 39.2882Z" fill="#D5D7E3"/>
<path d="M143.743 37.4742L140.638 39.2852L127.315 31.6532L130.419 29.8423L143.743 37.4742Z" fill="#909294"/>
<path d="M172.073 173.947L171.944 177.569L87.6046 226.595V222.973L172.073 173.947Z" fill="#6D6E71"/>
<path d="M87.6047 222.973V226.595L2.74831 177.569V173.947L87.6047 222.973Z" fill="#6D6E71"/>
<path d="M172.073 173.946L87.6046 222.971L2.74814 173.946L87.0872 124.92L172.073 173.946Z" fill="#1E1B1C"/>
<path d="M174.013 155.572V173.552L87.604 223.742L87.7333 205.632L174.013 155.572Z" fill="#BCBEC0"/>
<path d="M87.7319 205.632L87.6026 223.742L0.67646 173.552L0.805801 155.572L87.7319 205.632Z" fill="#BCBEC0"/>
<path d="M174.013 155.573L87.7333 205.633L0.807205 155.573L87.0866 105.384L174.013 155.573Z" fill="#D1D3D4"/>
<path d="M172.073 151.698L171.943 155.32L87.6044 204.345V200.723L172.073 151.698Z" fill="#D1D3D4"/>
<path d="M87.605 200.723V204.345L2.74855 155.32V151.698L87.605 200.723Z" fill="#D1D3D4"/>
<path d="M172.073 151.694L87.6048 200.72L2.74838 151.694L87.0874 102.669L172.073 151.694Z" fill="#F1F2F2"/>
<path d="M111.014 32.8174L114.766 33.0761L116.189 33.9817L112.437 33.5936L111.014 32.8174Z" fill="#161314"/>
<path d="M112.438 33.5933L116.189 33.9813L116.059 34.3693L112.309 34.1106L112.438 33.5933Z" fill="#121011"/>
<path d="M119.424 10.8237L123.304 11.0824L114.767 33.0727L111.016 32.814L119.424 10.8237Z" fill="#121011"/>
<path d="M113.989 29.7134L117.741 29.9721L116.189 33.9826L112.437 33.5945L113.989 29.7134Z" fill="#121011"/>
<path d="M116.965 4.87598L120.716 5.26404L109.462 34.3688L105.711 34.1101L116.965 4.87598Z" fill="#616263"/>
<path d="M112.308 34.1123L116.06 34.371L120.846 37.0875L116.965 36.8287L112.308 34.1123Z" fill="#161314"/>
<path d="M117.225 36.3091L120.975 36.6971L120.846 37.0851L116.966 36.8264L117.225 36.3091Z" fill="#793224"/>
<path d="M119.424 10.8237L123.304 11.0824L117.613 25.6995L113.861 25.3114L119.424 10.8237Z" fill="#121011"/>
<path d="M113.989 29.7134L117.741 29.9721L122.527 32.8179L118.646 32.4298L113.989 29.7134Z" fill="#923C2B"/>
<path d="M118.646 32.4302L122.527 32.8183L120.974 36.6994L117.223 36.3113L118.646 32.4302Z" fill="#793224"/>
<path d="M118.646 32.4302L117.223 36.3113L116.965 36.8288L112.307 34.112L112.437 33.5945L113.989 29.7134L118.646 32.4302Z" fill="#D7583F"/>
<path d="M117.224 36.3091L120.976 36.6972L123.822 38.2496L119.941 37.9909L117.224 36.3091Z" fill="#161314"/>
<path d="M119.942 37.9902L123.822 38.2489L123.693 38.7663L119.813 38.3783L119.942 37.9902Z" fill="#121011"/>
<path d="M121.493 34.1123L125.375 34.371L123.822 38.2522L119.941 37.9934L121.493 34.1123Z" fill="#121011"/>
<path d="M119.811 38.3794L123.692 38.7675L128.349 41.4839L124.597 41.0958L119.811 38.3794Z" fill="#161314"/>
<path d="M124.728 40.707L128.608 40.9657L128.349 41.4831L124.598 41.095L124.728 40.707Z" fill="#186A3B"/>
<path d="M126.279 36.8267L130.03 37.0854L128.607 40.9665L124.726 40.7078L126.279 36.8267Z" fill="#186A3B"/>
<path d="M121.493 34.1123L125.374 34.371L130.031 37.0875L126.279 36.8287L121.493 34.1123Z" fill="#1D7F47"/>
<path d="M127.573 42.3911L131.324 42.6498L131.195 43.0378L127.444 42.7791L127.573 42.3911Z" fill="#121011"/>
<path d="M124.727 40.707L128.608 40.9658L131.325 42.6476L127.573 42.3889L124.727 40.707Z" fill="#161314"/>
<path d="M128.994 38.3794L132.875 38.7675L131.323 42.6486L127.571 42.3899L128.994 38.3794Z" fill="#121011"/>
<path d="M127.443 42.7773L131.194 43.0361L135.98 45.7525L132.1 45.4938L127.443 42.7773Z" fill="#161314"/>
<path d="M132.231 45.1094L136.111 45.3681L135.982 45.7561L132.101 45.4974L132.231 45.1094Z" fill="#616263"/>
<path d="M133.781 41.2241L137.662 41.4829L136.11 45.364L132.229 45.1052L133.781 41.2241Z" fill="#616263"/>
<path d="M128.995 38.3794L132.876 38.7675L137.662 41.4839L133.781 41.2252L128.995 38.3794Z" fill="#757778"/>
<path d="M133.782 41.2255L132.229 45.1067L132.1 45.4948L127.443 42.778L127.572 42.3899L128.995 38.3794L133.782 41.2255Z" fill="#ADAFB1"/>
<path d="M135.076 46.6567L138.956 47.0448L138.698 47.4328L134.947 47.1741L135.076 46.6567Z" fill="#121011"/>
<path d="M132.229 45.1094L136.11 45.3681L138.956 47.0499L135.075 46.6618L132.229 45.1094Z" fill="#161314"/>
<path d="M136.627 42.7773L140.379 43.1655L138.956 47.0466L135.075 46.6585L136.627 42.7773Z" fill="#121011"/>
<path d="M134.946 47.1733L138.697 47.432L143.483 50.1485L139.732 49.8898L134.946 47.1733Z" fill="#161314"/>
<path d="M139.861 49.5049L143.612 49.7636L143.482 50.1516L139.732 49.8929L139.861 49.5049Z" fill="#616263"/>
<path d="M141.413 45.4951L145.165 45.8832L143.612 49.7643L139.86 49.5056L141.413 45.4951Z" fill="#616263"/>
<path d="M136.627 42.7773L140.378 43.1654L145.165 45.8819L141.413 45.4938L136.627 42.7773Z" fill="#757778"/>
<path d="M139.86 49.5049L143.611 49.7636L146.458 51.3161L142.706 51.0573L139.86 49.5049Z" fill="#161314"/>
<path d="M142.706 51.0576L146.457 51.3163L146.328 51.8337L142.448 51.4456L142.706 51.0576Z" fill="#121011"/>
<path d="M144.13 47.1733L148.011 47.4321L146.458 51.3132L142.707 51.0545L144.13 47.1733Z" fill="#121011"/>
<path d="M142.449 51.4448L146.33 51.8329L150.986 54.5493L147.235 54.2906L142.449 51.4448Z" fill="#161314"/>
<path d="M147.365 53.7729L151.246 54.161L150.987 54.549L147.236 54.2903L147.365 53.7729Z" fill="#616263"/>
<path d="M144.13 47.1733L148.01 47.432L152.667 50.1485L148.916 49.8898L144.13 47.1733Z" fill="#757778"/>
<path d="M147.363 53.7729L151.244 54.1611L152.667 54.9373L148.786 54.6785L147.363 53.7729Z" fill="#161314"/>
<path d="M148.915 49.8906L152.667 50.1494L151.244 54.1598L147.363 53.7717L148.915 49.8906Z" fill="#616263"/>
<path d="M151.632 47.1733L155.513 47.5615L152.667 54.9356L148.786 54.6768L151.632 47.1733Z" fill="#121011"/>
<path d="M148.917 49.8901L147.364 53.7712L147.235 54.2887L142.448 51.4426L142.707 51.0545L144.13 47.1733L148.917 49.8901Z" fill="#ADAFB1"/>
<path d="M105.711 34.1123L109.462 34.371L155.254 60.7593L151.373 60.5006L105.711 34.1123Z" fill="#757778"/>
<path d="M157.324 32.6846L151.632 47.1723L113.861 25.3114L119.423 10.8237L157.324 32.6846Z" fill="#177FC0"/>
<path d="M157.323 32.689L161.075 32.9477L155.512 47.5647L151.632 47.1767L157.323 32.689Z" fill="#2E2E2F"/>
<path d="M119.423 10.8237L123.303 11.0824L161.075 32.9433L157.323 32.6846L119.423 10.8237Z" fill="#373839"/>
<path d="M116.965 4.87598L120.716 5.26404L166.508 31.6523L162.627 31.2643L116.965 4.87598Z" fill="#161314"/>
<path d="M162.627 31.2646L166.508 31.6527L155.254 60.7574L151.373 60.4987L162.627 31.2646Z" fill="#121011"/>
<path d="M102.089 35.0153L153.055 64.5081L166.249 30.4879L115.283 0.995117L102.089 35.0153ZM151.373 60.4981L105.711 34.1098L116.965 4.87575L162.627 31.264L151.373 60.4981Z" fill="#E6E7E8"/>
<path d="M111.016 32.8165L112.438 33.5926L113.991 29.712L118.647 32.4285L117.225 36.3091L119.941 37.9907L121.493 34.1101L126.279 36.8265L124.727 40.7071L127.573 42.3887L128.996 38.3788L133.782 41.2246L132.23 45.1052L135.075 46.6574L136.628 42.7768L141.414 45.4932L139.862 49.5032L142.707 51.0555L144.13 47.1749L148.916 49.8913L147.364 53.7719L148.787 54.6774L151.633 47.1749L113.861 25.314L111.016 32.8165Z" fill="#201D1D"/>
<path d="M162.628 31.2643L151.374 60.4983L105.712 34.1101L116.966 4.87598L162.628 31.2643ZM148.787 54.6774L151.633 47.1748L157.324 32.6872L119.424 10.8263L110.886 32.8165L112.438 33.5926L112.309 33.9807L116.966 36.8265L117.225 36.3091L119.941 37.9907L119.812 38.3787L124.598 41.0952L124.727 40.7071L127.573 42.3887L127.444 42.7768L132.1 45.4932L132.23 45.1052L135.075 46.6574L134.946 47.0455L139.732 49.8913L139.862 49.5032L142.707 51.0555L142.449 51.4435L147.235 54.2893L147.364 53.7719L148.787 54.6774Z" fill="#201D1D"/>
<path d="M119.94 37.9934L119.81 38.3815L124.597 41.0983L124.726 40.7102L126.279 36.8291L121.492 34.1123L119.94 37.9934Z" fill="#2ABC68"/>
<path d="M141.413 45.4941L139.86 49.5046L139.731 49.8927L134.944 47.1759L135.074 46.6585L136.626 42.7773L141.413 45.4941Z" fill="#ADAFB1"/>
<path d="M115.284 0.995117L119.035 1.25383L170 30.7466L166.249 30.4879L115.284 0.995117Z" fill="#F1F2F2"/>
<path d="M166.249 30.4858L170 30.7445L156.936 64.7647L153.055 64.506L166.249 30.4858Z" fill="#BCBEC0"/>
<g clip-path="url(#clip0_240_803)">
<path d="M87.828 187.977L34.2375 157.08V121.388L87.828 152.285V187.977Z" fill="#A8020B"/>
<path d="M34.2375 121.388V157.08L87.828 187.977L35.8357 156.227L34.2375 121.388Z" fill="#7D0618"/>
<path d="M56.7175 170.183V134.385L65.2409 139.286V175.617L56.7175 170.183Z" fill="#7D0618"/>
<path d="M87.828 152.284L34.2375 121.387L87.828 90.4902L141.312 121.387L87.828 152.284Z" fill="#FF998A"/>
<path d="M138.116 121.174L87.828 150.58L34.2375 121.387L87.828 152.284L141.312 121.387L87.828 90.4902L138.116 121.174Z" fill="#FFB8AD"/>
<path d="M58.209 107.75L120.216 143.441L129.592 138.114L58.4221 107.537L58.209 107.75Z" fill="#C4251F"/>
<path d="M66.9462 102.636L89.1069 114.995L80.2639 120.109L58.4229 107.537L66.9462 102.636Z" fill="#FEF884"/>
<path d="M129.912 137.795L120.43 143.122L89.2129 125.223L98.2689 120.109L129.912 137.795Z" fill="#FEF884"/>
<path d="M64.4961 138.966L119.898 108.069L119.685 108.921L65.2419 139.286L64.4961 138.966Z" fill="#C4251F"/>
<path d="M98.269 120.109L89.2129 125.223L80.2634 120.109L89.1064 114.995L98.269 120.109Z" fill="#FFDF31"/>
<path d="M80.2638 120.109L89.2133 125.223L64.4957 138.967L56.0789 134.066L80.2638 120.109Z" fill="#FEDE31"/>
<path d="M73.7647 118.724C73.7647 118.724 63.4302 117.765 63.8563 123.092C64.2825 128.419 75.1498 128.099 75.1498 128.099H78.6656C78.6656 128.099 73.8713 136.41 84.5254 136.41C95.1796 136.41 96.4581 131.828 94.6469 129.484C92.8357 127.14 92.1964 123.198 92.1964 123.198C92.1964 123.198 98.802 125.01 104.023 124.69C109.243 124.37 117.021 123.731 116.594 121.281C116.275 118.83 118.725 113.823 111.374 115.74C104.023 117.658 91.7703 116.38 91.7703 116.38L85.0581 107.963L80.2638 108.709V113.929L73.7647 118.724Z" fill="#D49792"/>
<path d="M93.5813 101.145C93.5813 110.734 90.385 117.553 90.385 117.553L84.3122 116.594L84.5252 115.102C84.5252 115.102 80.157 101.252 83.2467 98.3752C83.5664 98.0556 84.0991 97.8425 84.6318 97.8425C89.9589 97.6294 93.5813 97.5229 93.5813 101.145Z" fill="#FBD631"/>
<path d="M84.8442 101.89C84.8442 101.89 85.59 108.922 85.4835 110.414C85.2704 111.905 85.4835 113.716 85.4835 113.716L91.876 112.545C91.876 112.545 93.0479 107.644 93.1545 104.66C93.261 101.677 93.261 101.677 93.261 101.677L92.4087 107.004C92.3022 107.537 91.6629 107.644 91.3433 107.217C90.9171 106.685 90.3844 106.259 89.6386 106.259C88.7863 106.259 87.9339 106.685 87.2947 107.111C86.5489 107.537 85.59 107.217 85.4835 106.365C85.3769 104.767 85.0573 102.849 84.8442 101.89Z" fill="#FAC22A"/>
<path d="M85.0586 116.487H84.4193L84.6324 114.995C84.6324 114.995 80.2642 101.145 83.3539 98.2681C83.7801 98.5877 84.0997 99.2269 84.3128 100.186C85.3782 107.431 85.1651 113.504 85.0586 116.487Z" fill="#FAB01B"/>
<path d="M83.0338 99.2271C83.0338 99.2271 81.8618 99.7598 83.0338 106.792C84.2058 113.823 85.1646 115.954 85.1646 115.954C85.1646 115.954 84.6319 96.0308 83.0338 99.2271Z" fill="#D85E00"/>
<path d="M119.898 108.069L98.2698 120.108L89.1072 114.994L110.416 102.742L119.898 108.069Z" fill="#FFE763"/>
<path d="M56.0789 169.862V134.064L64.4957 138.965V175.296L56.0789 169.862Z" fill="#FAB01B"/>
<path d="M87.8276 187.977L141.312 157.08V121.388L87.8276 152.285V187.977Z" fill="#DB4534"/>
<path d="M87.8276 187.977L141.312 157.08V156.121L87.8276 187.018V187.977Z" fill="#B61D12"/>
<path d="M120.856 168.8V133.215L111.694 138.435V174.127L120.856 168.8Z" fill="#9D0012"/>
<path d="M121.176 169.011V133L112.014 138.327V174.338L121.176 169.011Z" fill="#FBD631"/>
<path d="M113.931 128.847L120.004 133.002L111.374 138.01L112.013 138.329L121.176 133.002L113.931 128.847Z" fill="#FEFBBF"/>
<path d="M90.918 178.495L106.153 169.652V156.867L91.2376 164.964L90.918 165.71V178.495Z" fill="#9D0012"/>
<path d="M91.5569 165.178L106.792 156.335L106.473 156.122L91.2373 164.965L91.5569 165.178Z" fill="#FEFEFE"/>
<path d="M91.5569 177.855V165.177L91.2373 164.964V177.642L91.5569 177.855Z" fill="#8B8B8B"/>
<path d="M91.5574 177.856L106.793 169.12V156.335L91.5574 165.178V177.856Z" fill="#D6D6D6"/>
<path d="M92.4092 166.882L105.94 159.104V158.252L92.4092 166.136V166.882Z" fill="#6F6F6F"/>
<path d="M98.0559 167.202L105.941 162.62V161.874L98.0559 166.456V167.202Z" fill="#8E8E8E"/>
<path d="M92.4092 175.832L96.5643 173.381V166.562L92.4092 168.906V175.832Z" fill="#8E8E8E"/>
<path d="M98.0559 169.014L105.941 164.432V163.58L98.0559 168.161V169.014Z" fill="#8E8E8E"/>
<path d="M98.0559 170.719L105.941 166.137V165.392L98.0559 169.867V170.719Z" fill="#8E8E8E"/>
<path d="M98.0559 172.53L105.941 167.948V167.096L98.0559 171.678V172.53Z" fill="#8E8E8E"/>
<path d="M87.8284 152.285V187.977L89.533 151.22L87.8284 152.285Z" fill="#F56C5D"/>
<path d="M139.288 122.56L141.313 156.121V121.388L139.288 122.56Z" fill="#F56C5D"/>
<path d="M90.4918 117.02C90.4918 117.02 98.0563 118.938 104.981 116.914C111.8 114.996 118.086 110.841 118.086 110.841L120.004 116.381C120.004 116.381 111.907 125.33 90.3853 120.962L90.4918 117.02Z" fill="#D85E00"/>
<path d="M90.4927 117.02C90.4927 117.02 106.474 102.424 113.186 104.768C120.005 107.111 120.005 115.848 119.792 116.487C119.792 116.487 115.956 108.39 103.491 115.954C97.8441 119.364 90.1731 120.962 90.1731 120.962L90.4927 117.02Z" fill="url(#paint0_linear_240_803)"/>
<path d="M107.219 105.835C107.219 105.835 101.892 108.499 98.5892 110.842C95.3929 113.186 94.0079 114.678 91.2378 115.85C88.4677 116.915 89.4266 119.472 89.4266 119.472L90.3855 120.112C90.3855 120.112 93.6883 120.005 100.081 116.489C106.473 112.973 109.456 111.375 109.456 111.375C109.456 111.375 103.81 113.186 100.827 114.891C100.081 115.317 98.5892 116.383 97.8434 116.063C97.6303 115.956 97.4172 115.85 97.4172 115.637C97.4172 115.53 97.4172 115.424 97.5238 115.317C97.6303 115.104 97.6303 114.998 97.7368 114.784C97.7368 114.571 97.8434 114.465 97.7368 114.252C97.7368 114.039 97.5238 113.932 97.3107 113.932C97.6303 112.867 96.0322 113.719 96.8845 112.973C97.6303 112.334 99.0153 111.269 99.7611 110.736C101.892 109.564 105.088 106.687 107.219 105.835Z" fill="#E89D07"/>
<path d="M89.4269 117.02C89.4269 117.02 81.8624 118.938 74.9372 116.914C68.1185 114.996 61.8325 110.841 61.8325 110.841L59.9148 116.381C59.9148 116.381 68.5447 125.33 90.1727 120.962L89.4269 117.02Z" fill="#D85E00"/>
<path d="M90.1722 120.962C90.1722 120.962 81.8619 119.257 76.3218 115.954C67.7984 110.734 63.3237 112.865 61.2994 114.782C60.3405 115.635 60.0209 116.487 60.0209 116.487C59.9143 115.954 59.9143 110.84 62.791 107.431C63.7498 106.366 65.0283 105.407 66.6265 104.768C73.4451 102.424 89.3198 117.02 89.3198 117.02L90.1722 120.962Z" fill="url(#paint1_linear_240_803)"/>
<path d="M76.2154 107.539C76.2154 107.539 83.4603 112.014 84.5257 113.612C85.6977 115.21 83.6734 118.726 83.6734 118.726C83.6734 118.726 79.8379 117.234 78.9855 116.915C78.2397 116.595 73.6584 113.718 73.6584 113.718C73.6584 113.718 80.4771 116.702 80.9033 116.595C81.3295 116.489 81.9687 113.825 81.9687 113.825L82.0752 112.44L76.2154 107.539Z" fill="#FAC22A"/>
<path d="M90.9186 113.719C90.9186 113.719 92.1973 109.67 88.681 109.776C85.1646 109.883 84.3122 109.776 84.4188 112.334C84.5253 114.891 87.2958 117.768 87.2958 117.768L90.9186 113.719Z" fill="#FADD4A"/>
<path d="M88.8935 111.8C88.8935 111.8 91.6639 108.603 93.3688 111.48C95.1803 114.357 95.713 115.103 93.5819 116.382C91.4508 117.767 87.5083 116.914 87.5083 116.914L88.8935 111.8Z" fill="#FEC200"/>
<path d="M86.1242 112.44C86.1242 112.44 83.3537 109.243 81.6489 112.12C79.8374 114.997 79.3047 115.743 81.4358 117.022C83.5669 118.3 87.5094 117.554 87.5094 117.554L86.1242 112.44Z" fill="#FEC200"/>
<path d="M91.6641 114.995C92.8361 115.741 93.0492 119.577 88.2548 119.47C83.4604 119.363 81.6492 119.363 82.2885 116.913C83.1408 113.61 87.8286 114.995 87.8286 114.995C87.8286 114.995 90.9183 114.569 91.6641 114.995Z" fill="#FAB01B"/>
<path d="M84.6323 117.127C84.6323 117.127 82.8211 116.594 80.9033 120.749C77.8136 127.568 80.2641 133.001 81.9687 133.534C85.165 134.493 92.3033 135.026 93.3687 131.297C94.4341 127.568 91.0248 117.127 91.0248 117.127L88.3612 117.446L84.6323 117.127Z" fill="#FADD4A"/>
<path d="M84.6323 117.127C84.6323 117.127 82.8211 116.594 80.9033 120.749C77.8136 127.568 80.2641 133.001 81.9687 133.534C85.165 134.493 92.3033 135.026 93.3687 131.297C94.4341 127.568 91.0248 117.127 91.0248 117.127L88.3612 117.446L84.6323 117.127Z" fill="#FADD4A"/>
<path d="M91.0248 117.127L90.7051 117.234C91.3444 119.578 93.3687 126.077 92.5164 128.847C91.664 132.15 85.2715 131.724 82.5014 130.765C79.7313 129.912 78.5594 126.29 81.5426 119.578C81.6491 119.365 81.7556 119.152 81.8622 119.045C81.5426 119.578 81.2229 120.111 80.9033 120.75C77.8136 127.569 80.2641 133.002 81.9687 133.535C85.165 134.494 92.3033 135.026 93.3687 131.297C94.4341 127.675 91.0248 117.127 91.0248 117.127Z" fill="#FAB01B"/>
<path d="M81.9686 127.143C80.7967 126.823 80.5836 125.864 80.0509 124.692C78.6658 129.7 79.4116 132.683 81.9686 133.535C85.1649 134.494 92.3032 135.027 93.3686 131.298C93.6882 130.019 93.5817 127.782 93.1555 125.438C91.5574 128.634 84.9518 128.102 81.9686 127.143Z" fill="#FFD13B"/>
<path d="M93.4743 128.207C93.4743 128.42 93.3678 128.633 93.3678 128.846C92.3024 132.575 85.1641 132.042 81.9678 131.083C80.3697 130.551 79.9435 129.166 79.6239 127.035C79.1977 130.657 79.837 132.894 81.9678 133.534C85.1641 134.493 92.3024 135.025 93.3678 131.296C93.5809 130.551 93.5809 129.485 93.4743 128.207Z" fill="#FAB01B"/>
<path d="M118.512 114.463C118.512 114.463 117.234 112.545 114.25 112.226C114.25 111.48 114.25 110.627 114.25 110.095C114.144 109.242 114.464 107.112 113.718 105.3C114.25 105.513 114.783 105.833 115.316 106.259C117.66 108.283 118.299 109.562 118.406 110.627C118.619 111.693 118.512 114.463 118.512 114.463Z" fill="#FBE265"/>
<path d="M63.7501 106.686C63.7501 106.686 65.1351 104.768 68.1183 104.662C70.2491 104.555 72.4865 105.94 72.4865 105.94C72.4865 105.94 70.5688 107.006 70.3557 107.432C70.1426 107.858 70.4622 109.243 70.4622 109.243C70.4622 109.243 70.3557 111.374 70.1426 111.48C69.9295 111.48 72.2734 113.505 72.2734 113.505C72.2734 113.505 68.651 111.587 65.9875 112.12C64.1763 112.546 62.5781 113.291 62.5781 113.291C62.5781 113.291 63.537 110.734 63.6435 109.563C63.9632 108.391 63.7501 106.686 63.7501 106.686Z" fill="#FBE265"/>
<path d="M62.791 107.325C62.4713 108.39 62.1517 109.988 62.1517 111.054C62.1517 112.439 61.5125 113.717 61.2994 114.676C60.3405 115.528 60.0209 116.381 60.0209 116.381C59.9143 115.955 59.9143 110.841 62.791 107.325Z" fill="#FAB01B"/>
</g>
<g clip-path="url(#clip1_240_803)">
<path d="M87.8278 152.823L34.2373 121.926V86.2344L87.8278 117.131V152.823Z" fill="#A8020B"/>
<path d="M34.2373 86.2344V121.926L87.8278 152.823L35.8354 121.074L34.2373 86.2344Z" fill="#7D0618"/>
<path d="M56.7173 135.029V99.2314L65.2406 104.132V140.463L56.7173 135.029Z" fill="#7D0618"/>
<path d="M87.8278 117.131L34.2373 86.2335L87.8278 55.3364L141.312 86.2335L87.8278 117.131Z" fill="#FF998A"/>
<path d="M138.115 86.0204L87.8278 115.426L34.2373 86.2335L87.8278 117.131L141.312 86.2335L87.8278 55.3364L138.115 86.0204Z" fill="#FFB8AD"/>
<path d="M58.2087 72.5954L120.216 108.287L129.592 102.96L58.4218 72.3823L58.2087 72.5954Z" fill="#C4251F"/>
<path d="M66.9459 67.4824L89.1066 79.8413L80.2637 84.9553L58.4226 72.3833L66.9459 67.4824Z" fill="#FEF884"/>
<path d="M129.912 102.641L120.429 107.969L89.2126 90.0696L98.2687 84.9556L129.912 102.641Z" fill="#FEF884"/>
<path d="M64.4956 103.812L119.897 72.915L119.684 73.7674L65.2414 104.132L64.4956 103.812Z" fill="#C4251F"/>
<path d="M98.2687 84.9563L89.2127 90.0703L80.2632 84.9563L89.1061 79.8423L98.2687 84.9563Z" fill="#FFDF31"/>
<path d="M80.2636 84.9556L89.2131 90.0696L64.4954 103.813L56.0786 98.9125L80.2636 84.9556Z" fill="#FEDE31"/>
<path d="M73.7647 83.5698C73.7647 83.5698 63.4302 82.6109 63.8563 87.938C64.2825 93.2651 75.1498 92.9455 75.1498 92.9455H78.6656C78.6656 92.9455 73.8713 101.256 84.5254 101.256C95.1796 101.256 96.4581 96.6744 94.6469 94.3305C92.8357 91.9866 92.1964 88.0445 92.1964 88.0445C92.1964 88.0445 98.802 89.8558 104.023 89.5361C109.243 89.2165 117.021 88.5773 116.594 86.1268C116.275 83.6763 118.725 78.6689 111.374 80.5866C104.023 82.5044 91.7703 81.2259 91.7703 81.2259L85.0581 72.8091L80.2638 73.5549V78.7754L73.7647 83.5698Z" fill="#D49792"/>
<path d="M93.5813 65.9915C93.5813 75.5803 90.385 82.3989 90.385 82.3989L84.3122 81.4401L84.5252 79.9485C84.5252 79.9485 80.157 66.098 83.2467 63.2214C83.5664 62.9018 84.0991 62.6887 84.6318 62.6887C89.9589 62.4756 93.5813 62.3691 93.5813 65.9915Z" fill="#FBD631"/>
<path d="M84.8442 66.736C84.8442 66.736 85.59 73.7678 85.4835 75.2594C85.2704 76.751 85.4835 78.5622 85.4835 78.5622L91.876 77.3902C91.876 77.3902 93.0479 72.4893 93.1545 69.5061C93.261 66.5229 93.261 66.5229 93.261 66.5229L92.4087 71.85C92.3022 72.3827 91.6629 72.4893 91.3433 72.0631C90.9171 71.5304 90.3844 71.1042 89.6386 71.1042C88.7863 71.1042 87.9339 71.5304 87.2947 71.9566C86.5489 72.3827 85.59 72.0631 85.4835 71.2108C85.3769 69.6127 85.0573 67.6949 84.8442 66.736Z" fill="#FAC22A"/>
<path d="M85.0583 81.3329H84.4191L84.6322 79.8413C84.6322 79.8413 80.264 65.9909 83.3537 63.1143C83.7798 63.4339 84.0995 64.0731 84.3126 65.032C85.378 72.2768 85.1649 78.3497 85.0583 81.3329Z" fill="#FAB01B"/>
<path d="M83.0338 64.0743C83.0338 64.0743 81.8618 64.607 83.0338 71.6387C84.2058 78.6705 85.1646 80.8013 85.1646 80.8013C85.1646 80.8013 84.6319 60.878 83.0338 64.0743Z" fill="#D85E00"/>
<path d="M119.898 72.915L98.2698 84.9542L89.1072 79.8402L110.416 67.5879L119.898 72.915Z" fill="#FFE763"/>
<path d="M56.0786 134.709V98.9111L64.4954 103.812V140.143L56.0786 134.709Z" fill="#FAB01B"/>
<path d="M87.8274 152.823L141.311 121.926V86.2344L87.8274 117.131V152.823Z" fill="#DB4534"/>
<path d="M87.8274 152.822L141.311 121.925V120.966L87.8274 151.863V152.822Z" fill="#B61D12"/>
<path d="M120.856 133.646V98.061L111.693 103.282V138.973L120.856 133.646Z" fill="#9D0012"/>
<path d="M121.176 133.857V97.8457L112.013 103.173V139.184L121.176 133.857Z" fill="#FBD631"/>
<path d="M113.931 93.6904L120.004 97.8456L111.374 102.853L112.013 103.173L121.176 97.8456L113.931 93.6904Z" fill="#FEFBBF"/>
<path d="M90.918 143.339L106.153 134.496V121.711L91.2376 129.808L90.918 130.554V143.339Z" fill="#9D0012"/>
<path d="M91.5579 130.022L106.793 121.179L106.474 120.966L91.2383 129.809L91.5579 130.022Z" fill="#FEFEFE"/>
<path d="M91.5569 142.7V130.022L91.2373 129.809V142.487L91.5569 142.7Z" fill="#8B8B8B"/>
<path d="M91.5576 142.701L106.793 133.964V121.179L91.5576 130.022V142.701Z" fill="#D6D6D6"/>
<path d="M92.4092 131.726L105.94 123.948V123.096L92.4092 130.98V131.726Z" fill="#6F6F6F"/>
<path d="M98.0569 132.046L105.942 127.465V126.719L98.0569 131.301V132.046Z" fill="#8E8E8E"/>
<path d="M92.4092 140.676L96.5643 138.225V131.407L92.4092 133.751V140.676Z" fill="#8E8E8E"/>
<path d="M98.0569 133.858L105.942 129.276V128.424L98.0569 133.006V133.858Z" fill="#8E8E8E"/>
<path d="M98.0569 135.563L105.942 130.981V130.235L98.0569 134.71V135.563Z" fill="#8E8E8E"/>
<path d="M98.0569 137.374L105.942 132.792V131.94L98.0569 136.522V137.374Z" fill="#8E8E8E"/>
<path d="M87.8281 117.129V152.821L89.5328 116.064L87.8281 117.129Z" fill="#F56C5D"/>
<path d="M139.288 87.4058L141.313 120.966V86.2339L139.288 87.4058Z" fill="#F56C5D"/>
<path d="M90.4918 81.865C90.4918 81.865 98.0563 83.7827 104.981 81.7584C111.8 79.8407 118.086 75.6855 118.086 75.6855L120.004 81.2257C120.004 81.2257 111.907 90.1752 90.3853 85.807L90.4918 81.865Z" fill="#D85E00"/>
<path d="M90.4925 81.8646C90.4925 81.8646 106.474 67.2683 113.186 69.6123C120.005 71.9562 120.005 80.6926 119.791 81.3319C119.791 81.3319 115.956 73.2347 103.491 80.7991C97.8439 84.2085 90.1729 85.8066 90.1729 85.8066L90.4925 81.8646Z" fill="url(#paint2_linear_240_803)"/>
<path d="M107.219 70.6772C107.219 70.6772 101.892 73.3408 98.5892 75.6847C95.3929 78.0286 94.0079 79.5202 91.2378 80.6922C88.4677 81.7576 89.4266 84.3146 89.4266 84.3146L90.3855 84.9538C90.3855 84.9538 93.6883 84.8473 100.081 81.3314C106.473 77.8155 109.456 76.2174 109.456 76.2174C109.456 76.2174 103.81 78.0286 100.827 79.7333C100.081 80.1595 98.5892 81.2249 97.8434 80.9053C97.6303 80.7987 97.4172 80.6922 97.4172 80.4791C97.4172 80.3725 97.4172 80.266 97.5238 80.1595C97.6303 79.9464 97.6303 79.8398 97.7368 79.6267C97.7368 79.4137 97.8434 79.3071 97.7368 79.094C97.7368 78.881 97.5238 78.7744 97.3107 78.7744C97.6303 77.709 96.0322 78.5613 96.8845 77.8155C97.6303 77.1763 99.0153 76.1109 99.7611 75.5782C101.892 74.4062 105.088 71.5296 107.219 70.6772Z" fill="#E89D07"/>
<path d="M89.4269 81.865C89.4269 81.865 81.8624 83.7827 74.9372 81.7584C68.1185 79.8407 61.8325 75.6855 61.8325 75.6855L59.9148 81.2257C59.9148 81.2257 68.5447 90.1752 90.1727 85.807L89.4269 81.865Z" fill="#D85E00"/>
<path d="M90.1719 85.8066C90.1719 85.8066 81.8617 84.1019 76.3215 80.7991C67.7982 75.5786 63.3234 77.7094 61.2991 79.6272C60.3403 80.4795 60.0206 81.3319 60.0206 81.3319C59.9141 80.7991 59.9141 75.6851 62.7907 72.2758C63.7496 71.2104 65.0281 70.2515 66.6262 69.6123C73.4449 67.2683 89.3196 81.8646 89.3196 81.8646L90.1719 85.8066Z" fill="url(#paint3_linear_240_803)"/>
<path d="M76.2154 72.3823C76.2154 72.3823 83.4603 76.8571 84.5257 78.4552C85.6977 80.0533 83.6734 83.5692 83.6734 83.5692C83.6734 83.5692 79.8379 82.0776 78.9855 81.758C78.2397 81.4384 73.6584 78.5617 73.6584 78.5617C73.6584 78.5617 80.4771 81.5449 80.9033 81.4384C81.3295 81.3318 81.9687 78.6683 81.9687 78.6683L82.0752 77.2832L76.2154 72.3823Z" fill="#FAC22A"/>
<path d="M90.9184 78.5628C90.9184 78.5628 92.197 74.5137 88.6807 74.6202C85.1644 74.7268 84.312 74.6202 84.4185 77.1775C84.5251 79.7349 87.2955 82.6119 87.2955 82.6119L90.9184 78.5628Z" fill="#FADD4A"/>
<path d="M88.8935 76.6435C88.8935 76.6435 91.6639 73.4468 93.3688 76.3238C95.1803 79.2008 95.713 79.9467 93.5819 81.2253C91.4508 82.6105 87.5083 81.7581 87.5083 81.7581L88.8935 76.6435Z" fill="#FEC200"/>
<path d="M86.1242 77.2846C86.1242 77.2846 83.3537 74.0879 81.6489 76.9649C79.8374 79.8419 79.3047 80.5878 81.4358 81.8664C83.5669 83.1451 87.5094 82.3992 87.5094 82.3992L86.1242 77.2846Z" fill="#FEC200"/>
<path d="M91.6641 79.8404C92.8361 80.5862 93.0492 84.4217 88.2548 84.3152C83.4604 84.2086 81.6492 84.2086 82.2885 81.7582C83.1408 78.4554 87.8286 79.8404 87.8286 79.8404C87.8286 79.8404 90.9183 79.4143 91.6641 79.8404Z" fill="#FAB01B"/>
<path d="M84.6323 81.9719C84.6323 81.9719 82.8211 81.4392 80.9033 85.5943C77.8136 92.413 80.2641 97.8466 81.9687 98.3793C85.165 99.3382 92.3033 99.8709 93.3687 96.1419C94.4341 92.413 91.0248 81.9719 91.0248 81.9719L88.3612 82.2915L84.6323 81.9719Z" fill="#FADD4A"/>
<path d="M84.6323 81.9719C84.6323 81.9719 82.8211 81.4392 80.9033 85.5943C77.8136 92.413 80.2641 97.8466 81.9687 98.3793C85.165 99.3382 92.3033 99.8709 93.3687 96.1419C94.4341 92.413 91.0248 81.9719 91.0248 81.9719L88.3612 82.2915L84.6323 81.9719Z" fill="#FADD4A"/>
<path d="M91.0248 81.9717L90.7051 82.0782C91.3444 84.4221 93.3687 90.9212 92.5164 93.6913C91.664 96.9941 85.2715 96.5679 82.5014 95.609C79.7313 94.7567 78.5594 91.1343 81.5426 84.4221C81.6491 84.2091 81.7556 83.996 81.8622 83.8894C81.5426 84.4221 81.2229 84.9548 80.9033 85.5941C77.8136 92.4128 80.2641 97.8464 81.9687 98.3791C85.165 99.338 92.3033 99.8707 93.3687 96.1417C94.4341 92.5193 91.0248 81.9717 91.0248 81.9717Z" fill="#FAB01B"/>
<path d="M81.9684 91.9876C80.7964 91.6679 80.5833 90.7091 80.0506 89.5371C78.6656 94.5446 79.4114 97.5277 81.9684 98.3801C85.1646 99.3389 92.3029 99.8717 93.3683 96.1427C93.688 94.8642 93.5814 92.6268 93.1552 90.2829C91.5571 93.4792 84.9515 92.9464 81.9684 91.9876Z" fill="#FFD13B"/>
<path d="M93.4743 93.0528C93.4743 93.2659 93.3678 93.479 93.3678 93.6921C92.3024 97.421 85.1641 96.8883 81.9678 95.9294C80.3697 95.3967 79.9435 94.0117 79.6239 91.8809C79.1977 95.5033 79.837 97.7407 81.9678 98.3799C85.1641 99.3388 92.3024 99.8715 93.3678 96.1425C93.5809 95.3967 93.5809 94.3313 93.4743 93.0528Z" fill="#FAB01B"/>
<path d="M118.512 79.3076C118.512 79.3076 117.234 77.3899 114.25 77.0702C114.25 76.3244 114.25 75.4721 114.25 74.9394C114.144 74.0871 114.464 71.9562 113.718 70.145C114.25 70.3581 114.783 70.6777 115.316 71.1039C117.66 73.1282 118.299 74.4067 118.406 75.4721C118.619 76.5375 118.512 79.3076 118.512 79.3076Z" fill="#FBE265"/>
<path d="M63.7501 71.5287C63.7501 71.5287 65.1351 69.6109 68.1183 69.5044C70.2491 69.3978 72.4865 70.7829 72.4865 70.7829C72.4865 70.7829 70.5688 71.8483 70.3557 72.2745C70.1426 72.7006 70.4622 74.0857 70.4622 74.0857C70.4622 74.0857 70.3557 76.2165 70.1426 76.3231C69.9295 76.3231 72.2734 78.3473 72.2734 78.3473C72.2734 78.3473 68.651 76.4296 65.9875 76.9623C64.1763 77.3885 62.5781 78.1343 62.5781 78.1343C62.5781 78.1343 63.537 75.5773 63.6435 74.4053C63.9632 73.2333 63.7501 71.5287 63.7501 71.5287Z" fill="#FBE265"/>
<path d="M62.7907 72.1699C62.4711 73.2353 62.1515 74.8335 62.1515 75.8989C62.1515 77.2839 61.5122 78.5624 61.2991 79.5213C60.3403 80.3736 60.0206 81.226 60.0206 81.226C59.9141 80.7998 59.9141 75.6858 62.7907 72.1699Z" fill="#FAB01B"/>
</g>
<defs>
<linearGradient id="paint0_linear_240_803" x1="117.668" y1="109.967" x2="97.7465" y2="114.017" gradientUnits="userSpaceOnUse">
<stop stop-color="#FEDE31"/>
<stop offset="0.4271" stop-color="#FDD62E"/>
<stop offset="0.4706" stop-color="#FBBC21"/>
<stop offset="0.7882" stop-color="#FAB01B"/>
</linearGradient>
<linearGradient id="paint1_linear_240_803" x1="63.7149" y1="110.157" x2="95.8811" y2="119.359" gradientUnits="userSpaceOnUse">
<stop stop-color="#FEDE31"/>
<stop offset="0.4271" stop-color="#FDD62E"/>
<stop offset="0.4706" stop-color="#FBBC21"/>
<stop offset="0.7882" stop-color="#FAB01B"/>
</linearGradient>
<linearGradient id="paint2_linear_240_803" x1="117.668" y1="74.812" x2="97.7463" y2="78.8619" gradientUnits="userSpaceOnUse">
<stop stop-color="#FEDE31"/>
<stop offset="0.4271" stop-color="#FDD62E"/>
<stop offset="0.4706" stop-color="#FBBC21"/>
<stop offset="0.7882" stop-color="#FAB01B"/>
</linearGradient>
<linearGradient id="paint3_linear_240_803" x1="63.7146" y1="75.0021" x2="95.8809" y2="84.2036" gradientUnits="userSpaceOnUse">
<stop stop-color="#FEDE31"/>
<stop offset="0.4271" stop-color="#FDD62E"/>
<stop offset="0.4706" stop-color="#FBBC21"/>
<stop offset="0.7882" stop-color="#FAB01B"/>
</linearGradient>
<clipPath id="clip0_240_803">
<rect width="134.243" height="97.4857" fill="white" transform="translate(7.06995 90.4932)"/>
</clipPath>
<clipPath id="clip1_240_803">
<rect width="134.243" height="97.4857" fill="white" transform="translate(7.06995 55.334)"/>
</clipPath>
</defs>
</svg>
